<?xml version="1.0" encoding="iso-8859-1"?>
<!-- Generator: Adobe Illustrator 19.0.0, SVG Export Plug-In . SVG Version: 6.00 Build 0)  -->
<svg version="1.1" id="Layer_1" xmlns="http://www.w3.org/2000/svg" xmlns:xlink="http://www.w3.org/1999/xlink" x="0px" y="0px"
	 viewBox="0 0 511.999 511.999" style="enable-background:new 0 0 511.999 511.999;" xml:space="preserve">
<path style="fill:#CC9758;" d="M472.797,187.029L186.972,472.842c-40.814,40.814-106.974,40.814-147.776,0.012
	c-13.405-13.416-22.407-29.553-27.006-46.635c-9.405-34.913-0.403-73.744,27.006-101.153l113.567-113.555l71.22-71.231
	l85.017-85.005l16.021-16.021L472.797,187.029z"/>
<path style="fill:#B78349;" d="M317.621,120.789l-305.43,305.43c-9.405-34.913-0.403-73.744,27.006-101.153l113.567-113.555
	l71.22-71.231l85.017-85.005L317.621,120.789z"/>
<circle style="fill:#F2C386;" cx="398.906" cy="113.14" r="104.496"/>
<path style="fill:#CC9758;" d="M223.994,85.888v137.76c0,19.675-15.952,35.616-35.616,35.616c-2.317,0-4.576-0.219-6.766-0.645
	c-16.436-3.158-28.85-17.612-28.85-34.97V85.888H223.994z"/>
<path style="fill:#B78349;" d="M181.613,85.888v172.73c-16.436-3.158-28.85-17.612-28.85-34.97V85.888H181.613z"/>
<circle style="fill:#F2C386;" cx="188.371" cy="85.881" r="35.615"/>
<path d="M478.915,193.139c44.113-44.114,44.113-115.893,0-160.007c-44.108-44.107-115.873-44.114-159.99-0.016
	c-0.007,0.007-0.014,0.012-0.021,0.018l-77.317,77.318c-3.376,3.376-3.376,8.849,0,12.225c1.687,1.689,3.9,2.532,6.112,2.532
	c2.212,0,4.425-0.844,6.112-2.532l34.892-34.892c-8.382,36.711,1.669,76.817,30.203,105.353
	c22.057,22.057,51.03,33.086,80.003,33.086c8.506,0,17.007-0.977,25.338-2.879L195.194,452.401
	c-0.001,0.001-0.003,0.003-0.006,0.006l-14.326,14.326c-16.761,16.76-39.011,26.684-62.652,27.943
	c-4.767,0.254-8.427,4.325-8.172,9.092c0.245,4.61,4.061,8.185,8.625,8.185c0.154,0,0.311-0.003,0.467-0.013
	c27.909-1.486,54.175-13.2,73.958-32.982l12.067-12.067l23.33-2.08c4.755-0.424,8.267-4.623,7.842-9.379
	c-0.424-4.756-4.623-8.277-9.379-7.842l-2.736,0.244l82.694-82.694l35.061-0.574c4.774-0.078,8.579-4.011,8.502-8.785
	c-0.078-4.775-4.033-8.558-8.785-8.502l-17.198,0.281l154.259-154.257C478.8,193.247,478.858,193.196,478.915,193.139z
	 M398.911,208.989c-25.604,0-49.674-9.97-67.778-28.074c-37.373-37.373-37.373-98.183,0-135.556
	c18.686-18.686,43.232-28.029,67.777-28.029c24.546,0,49.092,9.343,67.778,28.029c18.104,18.104,28.074,42.175,28.074,67.778
	c0,25.578-9.952,49.624-28.021,67.722c-0.02,0.02-0.04,0.035-0.06,0.054l-0.171,0.171
	C448.426,199.078,424.432,208.989,398.911,208.989z"/>
<path d="M450.722,61.326c-28.567-28.567-75.052-28.569-103.62,0c-6.207,6.206-11.19,13.373-14.812,21.303
	c-1.984,4.343-0.071,9.471,4.272,11.455c4.346,1.985,9.472,0.07,11.455-4.272c2.762-6.047,6.566-11.517,11.311-16.26
	c10.553-10.553,24.612-16.366,39.585-16.366c14.972,0,29.031,5.813,39.584,16.366c18.712,18.713,21.726,48.317,7.165,70.396
	c-2.628,3.986-1.528,9.348,2.457,11.976c1.465,0.967,3.117,1.429,4.751,1.429c2.809,0,5.562-1.367,7.225-3.887
	C479.152,124.566,475.212,85.816,450.722,61.326z"/>
<path d="M424.769,162.795c-21.79,11.327-48.09,7.28-65.442-10.073c-9.064-9.064-14.604-20.591-16.02-33.336
	c-0.528-4.745-4.799-8.16-9.547-7.636c-4.744,0.528-8.164,4.802-7.636,9.547c1.829,16.449,9.28,31.952,20.978,43.651
	c14.129,14.128,32.785,21.518,51.735,21.518c11.511,0,23.131-2.728,33.908-8.33c4.237-2.203,5.885-7.422,3.683-11.658
	C434.224,162.242,429.002,160.594,424.769,162.795z"/>
<path d="M410.303,101.744c3.375,3.376,8.849,3.376,12.225,0c3.376-3.376,3.376-8.85-0.001-12.225
	c-13.023-13.022-34.213-13.022-47.235,0c-13.022,13.022-13.022,34.212,0.001,47.235c6.511,6.511,15.063,9.766,23.617,9.766
	c8.554,0,17.106-3.255,23.617-9.766c3.377-3.376,3.377-8.849,0.001-12.225s-8.85-3.377-12.225,0c-6.282,6.281-16.503,6.282-22.786,0
	c-6.282-6.282-6.282-16.503-0.001-22.785C393.8,95.463,404.021,95.463,410.303,101.744z"/>
<path d="M88.013,491.493c-16.082-4.34-30.847-12.899-42.702-24.752c-37.375-37.375-37.375-98.187,0-135.562l99.541-99.539
	c3.774,20.602,21.847,36.269,43.523,36.269c24.404,0,44.259-19.855,44.259-44.259V85.884c0-24.404-19.855-44.259-44.259-44.259
	s-44.259,19.855-44.259,44.259v52.263l-3.458-3.683c-3.269-3.48-8.739-3.651-12.22-0.383c-3.48,3.269-3.651,8.739-0.383,12.22
	l16.06,17.099v44.525L33.086,318.955c-44.115,44.115-44.115,115.896,0,160.012c13.989,13.989,31.425,24.093,50.422,29.22
	c0.754,0.203,1.512,0.301,2.257,0.301c3.812,0,7.301-2.539,8.341-6.395C95.35,497.483,92.622,492.736,88.013,491.493z
	 M188.374,250.619c-14.871,0-26.97-12.099-26.97-26.97V120.942c7.474,5.763,16.825,9.201,26.97,9.201s19.496-3.439,26.97-9.201
	v102.707C215.344,238.52,203.245,250.619,188.374,250.619z M188.374,58.914c14.871,0,26.97,12.099,26.97,26.97
	s-12.099,26.97-26.97,26.97s-26.97-12.099-26.97-26.97S173.503,58.914,188.374,58.914z"/>
<path d="M188.374,95.565c5.338,0,9.681-4.343,9.681-9.681c0-5.338-4.343-9.681-9.681-9.681s-9.681,4.343-9.681,9.681
	C178.693,91.222,183.036,95.565,188.374,95.565z"/>
<path d="M340.512,268.525l13.698-13.696c3.377-3.376,3.377-8.849,0.001-12.225c-3.376-3.376-8.85-3.377-12.225,0L328.288,256.3
	c-3.377,3.376-3.377,8.849-0.001,12.225c1.689,1.689,3.9,2.532,6.113,2.532C336.612,271.057,338.825,270.212,340.512,268.525z"/>
<path d="M218.711,378.102c1.687,1.689,3.9,2.532,6.112,2.532s4.425-0.844,6.112-2.532l88.41-88.409c3.376-3.376,3.376-8.85,0-12.225
	c-3.377-3.376-8.85-3.377-12.226,0l-88.409,88.409C215.334,369.254,215.334,374.727,218.711,378.102z"/>
<path d="M191.938,392.649l-69.732,69.732c-3.376,3.376-3.376,8.85,0,12.225c1.687,1.687,3.9,2.532,6.112,2.532
	c2.212,0,4.425-0.844,6.112-2.532l69.732-69.732c3.376-3.376,3.376-8.85,0-12.225C200.786,389.274,195.313,389.274,191.938,392.649z
	"/>
<path d="M219.818,300.763c1.687,1.689,3.9,2.532,6.112,2.532c2.212,0,4.425-0.844,6.112-2.532l62.746-62.746
	c3.376-3.376,3.376-8.85,0-12.225c-3.376-3.376-8.849-3.376-12.226,0l-62.746,62.746
	C216.441,291.913,216.441,297.387,219.818,300.763z"/>
<path d="M118.22,411.006c2.212,0,4.425-0.844,6.112-2.532l82.183-82.183c3.376-3.376,3.376-8.85,0-12.225
	c-3.376-3.376-8.85-3.376-12.225,0l-82.183,82.183c-3.376,3.376-3.376,8.85,0,12.225
	C113.796,410.161,116.007,411.006,118.22,411.006z"/>
<path d="M85.959,422.397L62.786,445.57c-3.376,3.376-3.376,8.85,0,12.225c1.687,1.687,3.9,2.532,6.112,2.532
	c2.212,0,4.425-0.844,6.112-2.532l23.173-23.173c3.376-3.376,3.376-8.85,0-12.225C94.809,419.021,89.335,419.021,85.959,422.397z"/>
<path d="M142.13,281.827l-13.075,13.075c-3.376,3.376-3.376,8.85,0,12.225c1.687,1.687,3.9,2.532,6.112,2.532
	c2.212,0,4.425-0.844,6.112-2.532l13.075-13.075c3.376-3.376,3.376-8.85,0-12.225C150.98,278.451,145.505,278.451,142.13,281.827z"
	/>
<path d="M258.864,189.542l13.075-13.074c3.377-3.376,3.377-8.849,0.001-12.225c-3.376-3.376-8.85-3.377-12.225,0l-13.075,13.074
	c-3.376,3.376-3.376,8.849,0,12.225c1.687,1.689,3.9,2.532,6.112,2.532C254.964,192.074,257.177,191.229,258.864,189.542z"/>
<path d="M99.792,324.164l-59.285,59.285c-3.376,3.376-3.376,8.85,0,12.225c1.687,1.687,3.9,2.532,6.112,2.532
	c2.212,0,4.425-0.844,6.112-2.532l59.285-59.285c3.376-3.376,3.376-8.85,0-12.225C108.642,320.788,103.168,320.788,99.792,324.164z"
	/>
<path d="M178.201,164.588c-4.774,0-8.645,3.87-8.645,8.645v53.596c0,4.774,3.87,8.645,8.645,8.645s8.645-3.87,8.645-8.645v-53.596
	C186.846,168.458,182.975,164.588,178.201,164.588z"/>
<g>
</g>
<g>
</g>
<g>
</g>
<g>
</g>
<g>
</g>
<g>
</g>
<g>
</g>
<g>
</g>
<g>
</g>
<g>
</g>
<g>
</g>
<g>
</g>
<g>
</g>
<g>
</g>
<g>
</g>
</svg>
