<?xml version="1.0" encoding="iso-8859-1"?>
<!-- Generator: Adobe Illustrator 19.0.0, SVG Export Plug-In . SVG Version: 6.00 Build 0)  -->
<svg version="1.1" id="Capa_1" xmlns="http://www.w3.org/2000/svg" xmlns:xlink="http://www.w3.org/1999/xlink" x="0px" y="0px"
	 viewBox="0 0 512 512" style="enable-background:new 0 0 512 512;" xml:space="preserve">
<g>
	<g>
		<path d="M505.789,356.517l-39.6-50.649c10.494-0.625,19.729-6.751,24.386-16.302c4.918-10.088,3.679-21.845-3.233-30.687
			l-35.845-45.848h1.89c11.222,0,21.248-6.267,26.166-16.354c4.918-10.088,3.68-21.846-3.233-30.688l-75.813-96.968
			c-5.555-7.105-13.915-11.181-22.933-11.181s-17.378,4.075-22.933,11.181l-18.696,23.916l-57.012-72.921
			c-5.555-7.105-13.915-11.181-22.933-11.181c-9.019,0-17.378,4.075-22.933,11.181l-57.011,72.921l-18.697-23.915
			c-5.555-7.105-13.915-11.181-22.933-11.181c-9.02,0-17.378,4.075-22.933,11.181l-75.813,96.969
			c-6.912,8.842-8.151,20.6-3.232,30.687c4.918,10.087,14.945,16.354,26.166,16.354h1.89l-35.845,45.848
			c-6.912,8.842-8.151,20.599-3.233,30.687c4.656,9.55,13.889,15.674,24.386,16.302l-39.6,50.648
			c-6.912,8.842-8.151,20.6-3.232,30.687c4.918,10.087,14.945,16.354,26.166,16.354h65.85v84.607c0,8.284,6.716,15,15,15h48.862
			c8.284,0,15-6.716,15-15v-84.607h42.715v84.607c0,8.284,6.716,15,15,15h48.862c8.284,0,15-6.716,15-15v-84.607h42.715v84.607
			c0,8.284,6.716,15,15,15h48.862c8.284,0,15-6.716,15-15v-84.607h65.85c11.222,0,21.248-6.267,26.166-16.354
			C513.94,377.117,512.702,365.358,505.789,356.517z M143.855,473.165h-18.862v-69.608h18.862V473.165z M216.569,373.558H30.966
			l39.558-50.596c6.913-8.841,8.152-20.599,3.234-30.687c-4.655-9.55-13.89-15.675-24.386-16.303l35.886-45.899
			c6.912-8.842,8.151-20.599,3.233-30.687s-14.945-16.354-26.166-16.354h-1.891l73.991-94.637l22.599,28.905
			c-6.7,8.804-7.863,20.4-3.003,30.369c4.918,10.088,14.945,16.354,26.167,16.354h1.891l-35.845,45.849
			c-6.913,8.841-8.151,20.599-3.234,30.687c4.656,9.55,13.89,15.674,24.387,16.302l-39.6,50.648
			c-6.913,8.841-8.152,20.599-3.234,30.687c4.918,10.088,14.945,16.354,26.167,16.354h65.849V373.558z M265.431,473.165h-18.862
			V354.55h18.862V473.165z M152.542,324.549l39.558-50.596c6.912-8.842,8.151-20.6,3.232-30.687
			c-4.655-9.549-13.889-15.673-24.385-16.3l35.886-45.901c6.912-8.841,8.151-20.6,3.233-30.687
			c-4.918-10.087-14.944-16.354-26.166-16.354h-1.89l73.99-94.637l73.99,94.638h-1.89c-11.223,0-21.249,6.267-26.166,16.354
			c-4.918,10.087-3.679,21.846,3.233,30.687l35.886,45.9c-10.494,0.625-19.728,6.75-24.385,16.301
			c-4.918,10.088-3.68,21.846,3.233,30.688l39.557,50.596H152.542z M387.006,473.165h-18.862v-69.608h18.862V473.165z
			 M295.43,373.559V354.55h65.849c11.223,0,21.249-6.267,26.167-16.354c4.918-10.087,3.679-21.846-3.234-30.687l-39.599-50.648
			c10.495-0.625,19.73-6.751,24.386-16.302c4.918-10.088,3.679-21.846-3.234-30.687l-35.845-45.849h1.89
			c11.223,0,21.249-6.267,26.167-16.354c4.86-9.969,3.697-21.565-3.003-30.369l22.599-28.905l73.99,94.637h-1.891
			c-11.223,0-21.249,6.267-26.166,16.354s-3.679,21.845,3.233,30.687l35.886,45.9c-10.495,0.625-19.729,6.751-24.386,16.303
			c-4.918,10.088-3.679,21.846,3.234,30.687l39.558,50.597H295.43z"/>
	</g>
</g>
<g>
</g>
<g>
</g>
<g>
</g>
<g>
</g>
<g>
</g>
<g>
</g>
<g>
</g>
<g>
</g>
<g>
</g>
<g>
</g>
<g>
</g>
<g>
</g>
<g>
</g>
<g>
</g>
<g>
</g>
</svg>
