<?xml version="1.0" encoding="iso-8859-1"?>
<!-- Generator: Adobe Illustrator 19.0.0, SVG Export Plug-In . SVG Version: 6.00 Build 0)  -->
<svg version="1.1" id="Layer_1" xmlns="http://www.w3.org/2000/svg" xmlns:xlink="http://www.w3.org/1999/xlink" x="0px" y="0px"
	 viewBox="0 0 511.999 511.999" style="enable-background:new 0 0 511.999 511.999;" xml:space="preserve">
<g>
	<g>
		<path d="M478.915,33.133c-44.108-44.107-115.873-44.114-159.99-0.016c-0.007,0.007-0.014,0.012-0.021,0.018l-77.317,77.318
			c-3.376,3.376-3.376,8.849,0,12.225c1.687,1.689,3.9,2.532,6.112,2.532s4.425-0.844,6.112-2.532l34.892-34.892
			c-8.382,36.711,1.669,76.817,30.203,105.353c22.057,22.057,51.03,33.086,80.003,33.086c8.506,0,17.007-0.977,25.338-2.879
			L195.194,452.401c-0.001,0.001-0.003,0.003-0.006,0.006l-14.326,14.326c-16.761,16.76-39.011,26.684-62.652,27.943
			c-4.767,0.254-8.427,4.325-8.172,9.092c0.246,4.61,4.061,8.185,8.625,8.185c0.154,0,0.311-0.003,0.467-0.013
			c27.909-1.486,54.175-13.2,73.958-32.982l12.067-12.067l23.33-2.08c4.755-0.424,8.266-4.623,7.842-9.379
			c-0.424-4.756-4.623-8.277-9.379-7.842l-2.736,0.244l82.694-82.694l35.061-0.574c4.774-0.078,8.579-4.011,8.502-8.785
			c-0.078-4.775-4.033-8.558-8.785-8.502l-17.198,0.281l154.258-154.257c0.055-0.055,0.114-0.106,0.171-0.163
			C523.028,149.025,523.028,77.247,478.915,33.133z M466.741,180.858c-0.02,0.02-0.04,0.035-0.06,0.054l-0.171,0.171
			c-18.084,17.995-42.078,27.906-67.599,27.906c-25.604,0-49.674-9.97-67.778-28.074c-37.373-37.373-37.373-98.183,0-135.556
			c18.686-18.686,43.232-28.029,67.777-28.029c24.546,0,49.092,9.343,67.778,28.029c18.104,18.104,28.074,42.175,28.074,67.778
			C494.762,138.714,484.81,162.761,466.741,180.858z"/>
	</g>
</g>
<g>
	<g>
		<path d="M450.722,61.326c-28.567-28.567-75.052-28.569-103.62,0c-6.207,6.206-11.19,13.373-14.812,21.303
			c-1.984,4.343-0.071,9.471,4.272,11.455c4.346,1.985,9.472,0.07,11.455-4.272c2.762-6.047,6.566-11.517,11.311-16.26
			c10.553-10.553,24.612-16.366,39.585-16.366c14.972,0,29.031,5.813,39.584,16.366c18.711,18.713,21.726,48.317,7.165,70.396
			c-2.628,3.986-1.528,9.348,2.457,11.976c1.465,0.967,3.117,1.429,4.751,1.429c2.809,0,5.562-1.367,7.225-3.887
			C479.152,124.566,475.212,85.816,450.722,61.326z"/>
	</g>
</g>
<g>
	<g>
		<path d="M436.426,166.478c-2.203-4.236-7.424-5.884-11.658-3.684c-21.79,11.327-48.09,7.28-65.442-10.073
			c-9.064-9.064-14.604-20.591-16.02-33.336c-0.528-4.745-4.799-8.16-9.547-7.636c-4.744,0.528-8.164,4.802-7.636,9.547
			c1.829,16.449,9.28,31.951,20.978,43.651c14.129,14.128,32.785,21.518,51.735,21.518c11.511,0,23.131-2.728,33.907-8.33
			C436.981,175.933,438.629,170.714,436.426,166.478z"/>
	</g>
</g>
<g>
	<g>
		<path d="M410.303,124.53c-6.282,6.281-16.503,6.282-22.786,0c-6.282-6.282-6.282-16.503-0.001-22.785
			c6.284-6.283,16.504-6.283,22.787-0.001c3.375,3.376,8.849,3.376,12.225,0s3.376-8.85-0.001-12.225
			c-13.023-13.022-34.213-13.022-47.235,0c-13.022,13.022-13.022,34.212,0.001,47.235c6.511,6.511,15.063,9.766,23.617,9.766
			c8.554,0,17.106-3.255,23.617-9.766c3.377-3.376,3.377-8.849,0.001-12.225S413.678,121.153,410.303,124.53z"/>
	</g>
</g>
<g>
	<g>
		<path d="M188.374,41.625c-24.404,0-44.259,19.855-44.259,44.259v52.263l-3.458-3.683c-3.269-3.48-8.739-3.651-12.22-0.383
			c-3.48,3.269-3.651,8.739-0.383,12.22l16.06,17.099v44.525L33.086,318.955c-44.115,44.115-44.115,115.896,0,160.012
			c13.989,13.989,31.425,24.093,50.422,29.22c0.754,0.203,1.512,0.301,2.257,0.301c3.812,0,7.301-2.539,8.341-6.395
			c1.244-4.61-1.485-9.357-6.094-10.601c-16.082-4.34-30.847-12.899-42.702-24.752c-37.375-37.375-37.375-98.187,0-135.562
			l99.541-99.539c3.774,20.602,21.847,36.269,43.523,36.269c24.404,0,44.259-19.855,44.259-44.259V85.884
			C232.633,61.48,212.778,41.625,188.374,41.625z M215.344,223.649c0,14.871-12.099,26.97-26.97,26.97
			c-14.871,0-26.97-12.099-26.97-26.97V120.942c7.474,5.763,16.825,9.201,26.97,9.201c10.145,0,19.496-3.439,26.97-9.201V223.649z
			 M188.374,112.854c-14.871,0-26.97-12.099-26.97-26.97s12.099-26.97,26.97-26.97s26.97,12.099,26.97,26.97
			S203.245,112.854,188.374,112.854z"/>
	</g>
</g>
<g>
	<g>
		<path d="M188.374,76.204c-5.338,0-9.681,4.343-9.681,9.681c0,5.338,4.343,9.681,9.681,9.681c5.338,0,9.681-4.343,9.681-9.681
			C198.055,80.547,193.712,76.204,188.374,76.204z"/>
	</g>
</g>
<g>
	<g>
		<path d="M354.21,242.604c-3.376-3.376-8.85-3.377-12.225,0L328.288,256.3c-3.377,3.376-3.377,8.849-0.001,12.225
			c1.689,1.689,3.9,2.532,6.113,2.532c2.212,0,4.425-0.845,6.111-2.532l13.698-13.696
			C357.586,251.452,357.586,245.98,354.21,242.604z"/>
	</g>
</g>
<g>
	<g>
		<path d="M319.345,277.469c-3.377-3.376-8.85-3.377-12.226,0l-88.409,88.409c-3.377,3.376-3.377,8.85,0,12.225
			c1.687,1.689,3.9,2.532,6.112,2.532s4.425-0.844,6.112-2.532l88.41-88.409C322.721,286.318,322.721,280.844,319.345,277.469z"/>
	</g>
</g>
<g>
	<g>
		<path d="M204.162,392.649c-3.376-3.375-8.85-3.375-12.225,0l-69.732,69.732c-3.376,3.376-3.376,8.85,0,12.225
			c1.687,1.687,3.9,2.532,6.112,2.532c2.212,0,4.425-0.844,6.112-2.532l69.732-69.732
			C207.538,401.498,207.538,396.024,204.162,392.649z"/>
	</g>
</g>
<g>
	<g>
		<path d="M294.789,225.793c-3.376-3.376-8.849-3.376-12.226,0l-62.746,62.746c-3.376,3.375-3.376,8.849,0.001,12.225
			c1.687,1.689,3.9,2.532,6.112,2.532s4.425-0.844,6.112-2.532l62.746-62.746C298.165,234.641,298.165,229.168,294.789,225.793z"/>
	</g>
</g>
<g>
	<g>
		<path d="M206.516,314.066c-3.376-3.376-8.85-3.376-12.225,0l-82.183,82.183c-3.376,3.376-3.376,8.85,0,12.225
			c1.687,1.687,3.899,2.532,6.112,2.532c2.212,0,4.425-0.844,6.112-2.532l82.183-82.183
			C209.892,322.914,209.892,317.44,206.516,314.066z"/>
	</g>
</g>
<g>
	<g>
		<path d="M98.183,422.397c-3.375-3.376-8.849-3.376-12.225,0L62.786,445.57c-3.376,3.376-3.376,8.85,0,12.225
			c1.687,1.687,3.9,2.532,6.112,2.532s4.425-0.844,6.112-2.532l23.173-23.173C101.559,431.246,101.559,425.772,98.183,422.397z"/>
	</g>
</g>
<g>
	<g>
		<path d="M154.355,281.827c-3.375-3.376-8.85-3.376-12.225,0l-13.075,13.075c-3.376,3.376-3.376,8.85,0,12.225
			c1.687,1.687,3.9,2.532,6.112,2.532s4.425-0.844,6.112-2.532l13.075-13.075C157.731,290.676,157.731,285.202,154.355,281.827z"/>
	</g>
</g>
<g>
	<g>
		<path d="M271.941,164.243c-3.376-3.376-8.85-3.377-12.225,0l-13.075,13.074c-3.376,3.376-3.376,8.849,0,12.225
			c1.687,1.689,3.9,2.532,6.112,2.532c2.211,0,4.424-0.845,6.111-2.532l13.075-13.074
			C275.317,173.092,275.317,167.619,271.941,164.243z"/>
	</g>
</g>
<g>
	<g>
		<path d="M112.017,324.163c-3.375-3.376-8.849-3.376-12.225,0l-59.285,59.285c-3.376,3.376-3.376,8.85,0,12.225
			c1.687,1.687,3.9,2.532,6.112,2.532s4.425-0.844,6.112-2.532l59.285-59.284C115.393,333.012,115.393,327.538,112.017,324.163z"/>
	</g>
</g>
<g>
	<g>
		<path d="M178.201,164.588c-4.774,0-8.645,3.87-8.645,8.645v53.596c0,4.774,3.87,8.645,8.645,8.645s8.645-3.87,8.645-8.645v-53.596
			C186.846,168.459,182.975,164.588,178.201,164.588z"/>
	</g>
</g>
<g>
</g>
<g>
</g>
<g>
</g>
<g>
</g>
<g>
</g>
<g>
</g>
<g>
</g>
<g>
</g>
<g>
</g>
<g>
</g>
<g>
</g>
<g>
</g>
<g>
</g>
<g>
</g>
<g>
</g>
</svg>
