<?xml version="1.0" encoding="iso-8859-1"?>
<!-- Generator: Adobe Illustrator 19.0.0, SVG Export Plug-In . SVG Version: 6.00 Build 0)  -->
<svg version="1.1" id="Capa_1" xmlns="http://www.w3.org/2000/svg" xmlns:xlink="http://www.w3.org/1999/xlink" x="0px" y="0px"
	 viewBox="0 0 512.001 512.001" style="enable-background:new 0 0 512.001 512.001;" xml:space="preserve">
<path style="fill:#4F1A0C;" d="M159.596,349.09h-47.301c-6.26,0-11.336,5.075-11.336,11.336v140.239
	c0,6.26,5.075,11.336,11.336,11.336h47.301c6.26,0,11.336-5.075,11.336-11.336v-140.24
	C170.931,354.165,165.856,349.09,159.596,349.09z"/>
<path style="fill:#802812;" d="M135.945,349.09h-23.65c-6.26,0-11.336,5.075-11.336,11.336v140.239
	c0,6.26,5.075,11.336,11.336,11.336h23.65V349.09z"/>
<path style="fill:#4F1A0C;" d="M399.705,349.09h-47.301c-6.26,0-11.336,5.075-11.336,11.336v140.239
	c0,6.26,5.075,11.336,11.336,11.336h47.301c6.26,0,11.336-5.075,11.336-11.336v-140.24
	C411.041,354.165,405.966,349.09,399.705,349.09z"/>
<path style="fill:#802812;" d="M376.055,349.09h-23.65c-6.26,0-11.336,5.075-11.336,11.336v140.239
	c0,6.26,5.075,11.336,11.336,11.336h23.65V349.09z"/>
<path style="fill:#808F1F;" d="M490.995,376.309L490.995,376.309L490.995,376.309z"/>
<path style="fill:#635D1B;" d="M502.664,367.187L502.664,367.187L463.56,317.17c10.363-0.617,19.483-6.666,24.081-16.097
	c4.856-9.961,3.633-21.572-3.193-30.303l-35.396-45.274h1.866c11.081,0,20.983-6.188,25.839-16.148
	c4.857-9.961,3.634-21.573-3.192-30.305l-74.864-95.755c-5.486-7.016-13.74-11.04-22.647-11.04c-8.906,0-17.16,4.024-22.646,11.04
	l-74.865,95.756c-6.825,8.731-8.049,20.342-3.192,30.304c4.856,9.96,14.757,16.148,25.839,16.148h1.866L267.66,270.77
	c-6.826,8.731-8.049,20.341-3.193,30.303c4.597,9.43,13.715,15.478,24.081,16.097l-39.104,50.016
	c-6.825,8.731-8.049,20.342-3.192,30.304c4.856,9.96,14.757,16.148,25.839,16.148h207.925c11.081,0,20.983-6.188,25.839-16.148
	C510.713,387.529,509.49,375.918,502.664,367.187z M490.995,376.309L490.995,376.309L490.995,376.309L490.995,376.309z"/>
<path style="fill:#808F1F;" d="M262.555,367.187L262.555,367.187l-39.104-50.016c10.363-0.617,19.483-6.666,24.081-16.097
	c4.856-9.961,3.633-21.572-3.193-30.303l-35.396-45.274h1.866c11.081,0,20.983-6.188,25.839-16.148
	c4.857-9.961,3.634-21.573-3.192-30.305l-74.864-95.755c-5.486-7.016-13.74-11.04-22.646-11.04s-17.161,4.024-22.646,11.04
	l-74.865,95.756c-6.825,8.731-8.049,20.342-3.192,30.304c4.856,9.96,14.757,16.148,25.839,16.148h1.866L27.551,270.77
	c-6.825,8.731-8.049,20.341-3.193,30.303c4.597,9.43,13.715,15.478,24.081,16.097L9.336,367.187
	c-6.825,8.731-8.049,20.342-3.192,30.304c4.856,9.96,14.757,16.148,25.839,16.148h207.925c11.081,0,20.983-6.188,25.839-16.148
	C270.604,387.529,269.38,375.918,262.555,367.187z M250.886,376.309L250.886,376.309L250.886,376.309L250.886,376.309z"/>
<path style="fill:#4F1A0C;" d="M286.903,299.129h-61.807c-8.18,0-14.812,6.632-14.812,14.812v183.247
	c0,8.18,6.632,14.812,14.812,14.812h61.807c8.18,0,14.812-6.632,14.812-14.812V313.941
	C301.715,305.761,295.084,299.129,286.903,299.129z"/>
<path style="fill:#802812;" d="M256,299.129h-30.903c-8.18,0-14.812,6.632-14.812,14.812v183.247c0,8.18,6.632,14.812,14.812,14.812
	H256V299.129z"/>
<path style="fill:#808F1F;" d="M401.801,328.223L401.801,328.223l-46.879-59.961c-0.195-0.249-0.558-0.714-0.161-1.527
	c0.397-0.814,0.986-0.814,1.303-0.814c11.979,0,22.681-6.689,27.93-17.456s3.927-23.319-3.451-32.756l-42.601-54.489
	c-0.195-0.249-0.558-0.714-0.161-1.527c0.397-0.814,0.986-0.814,1.302-0.814h4.278c11.979,0,22.681-6.688,27.93-17.456
	c5.25-10.768,3.928-23.319-3.451-32.757l-68.4-87.487C288.92,7.719,273.086,0,256,0s-32.92,7.719-43.443,21.179l-68.4,87.488
	c-7.378,9.437-8.7,21.988-3.45,32.756c5.249,10.768,15.952,17.456,27.93,17.456h4.278c0.317,0,0.906,0,1.303,0.814
	c0.397,0.814,0.034,1.278-0.161,1.527l-42.6,54.489c-7.378,9.437-8.701,21.988-3.451,32.756
	c5.249,10.768,15.952,17.456,27.931,17.456c0.316,0,0.906,0,1.302,0.814c0.397,0.814,0.034,1.279-0.161,1.527l-46.879,59.961
	c-7.378,9.437-8.7,21.989-3.45,32.756c5.249,10.768,15.952,17.456,27.93,17.456h242.643c11.978,0,22.681-6.689,27.93-17.456
	C410.501,350.213,409.179,337.66,401.801,328.223z"/>
<path style="fill:#BFA230;" d="M256,0c-17.086,0-32.92,7.719-43.443,21.179l-68.4,87.488c-7.378,9.437-8.7,21.988-3.45,32.756
	c5.249,10.768,15.952,17.456,27.93,17.456h4.278c0.317,0,0.906,0,1.303,0.814c0.397,0.814,0.034,1.278-0.161,1.527l-42.6,54.489
	c-7.378,9.437-8.701,21.988-3.451,32.756c5.249,10.768,15.952,17.456,27.931,17.456c0.316,0,0.906,0,1.302,0.814
	c0.397,0.814,0.034,1.279-0.161,1.527l-46.879,59.961c-7.378,9.437-8.7,21.989-3.45,32.756c5.249,10.768,15.952,17.456,27.93,17.456
	H256V0z"/>
<g>
</g>
<g>
</g>
<g>
</g>
<g>
</g>
<g>
</g>
<g>
</g>
<g>
</g>
<g>
</g>
<g>
</g>
<g>
</g>
<g>
</g>
<g>
</g>
<g>
</g>
<g>
</g>
<g>
</g>
</svg>
